<svg xmlns="http://www.w3.org/2000/svg" xml:space="preserve" fill-rule="evenodd" stroke-linejoin="round" stroke-miterlimit="2" clip-rule="evenodd" viewBox="0 0 591 150">
  <path fill-rule="nonzero" d="M200.738 30.874h8.939l13.247 38.969 13.182-38.97h8.81v46.108H239V49.78c0-.965 0-2.508.064-4.695.065-2.186.065-4.501.065-7.009l-13.183 38.905h-6.173l-13.247-38.905v1.415c0 1.157 0 2.83.064 5.144.065 2.315.129 4.051.129 5.145v27.2h-5.98V30.875Z"/>
  <path fill-rule="nonzero" d="M247.681 30.874h7.267l13.246 22.12 13.247-22.12h7.331l-17.427 27.522v18.585h-6.237V58.396L247.68 30.874Z"/>
  <path fill-rule="nonzero" d="M323.412 72.234c-3.472 3.15-7.845 4.758-13.246 4.758-6.688 0-11.897-2.122-15.69-6.43-3.795-4.244-5.724-10.16-5.724-17.62 0-8.102 2.186-14.276 6.495-18.713 3.794-3.794 8.552-5.658 14.404-5.658 7.781 0 13.44 2.507 17.041 7.652 1.993 2.83 3.087 5.723 3.215 8.617h-9.645c-.644-2.187-1.48-3.923-2.444-5.016-1.736-1.994-4.373-3.022-7.845-3.022-3.473 0-6.238 1.414-8.296 4.244-1.993 2.83-3.022 6.88-3.022 12.025 0 5.208 1.029 9.131 3.215 11.703 2.122 2.573 4.887 3.859 8.167 3.859 3.408 0 5.98-1.094 7.78-3.344.966-1.158 1.801-2.958 2.445-5.338h9.581c-.836 5.016-3.022 9.132-6.43 12.283Z"/>
  <path fill-rule="nonzero" d="M354.483 76.992c-6.624 0-11.704-1.8-15.176-5.401-4.695-4.437-7.074-10.804-7.074-19.099 0-8.488 2.38-14.854 7.074-19.099 3.472-3.6 8.552-5.401 15.176-5.401 6.559 0 11.639 1.8 15.111 5.401 4.694 4.245 7.01 10.61 7.01 19.099 0 8.295-2.316 14.662-7.01 19.099-3.472 3.6-8.552 5.401-15.111 5.401Zm9.13-12.41c2.187-2.83 3.345-6.881 3.345-12.09s-1.158-9.196-3.408-12.025c-2.251-2.83-5.273-4.244-9.067-4.244-3.859 0-6.945 1.415-9.196 4.244-2.315 2.83-3.408 6.816-3.408 12.025 0 5.209 1.093 9.26 3.408 12.09 2.25 2.829 5.337 4.244 9.196 4.244 3.794 0 6.816-1.415 9.13-4.245Z"/>
  <path fill-rule="nonzero" d="M389.647 75.706h-9.003v-46.3h14.018l8.424 36.397 8.36-36.396H425.4v46.3h-9.067V44.39c0-.9.065-2.122.065-3.794v-3.73l-8.746 38.84h-9.388l-8.682-38.84v3.73c.065 1.672.065 2.893.065 3.794v31.316Z"/>
  <path fill-rule="nonzero" d="M450.8 59.051h-9.838v16.655h-9.581v-46.3h20.127c4.63 0 8.36 1.222 11.125 3.602 2.765 2.379 4.115 6.109 4.115 11.06 0 5.466-1.35 9.324-4.115 11.575-2.765 2.315-6.688 3.408-11.832 3.408Zm4.502-9.646c1.286-1.093 1.865-2.829 1.865-5.273 0-2.379-.579-4.115-1.865-5.144s-3.022-1.543-5.337-1.543h-9.003v13.632h9.003c2.315 0 4.051-.514 5.337-1.672Z"/>
  <path fill-rule="nonzero" d="M493.435 66.189H476.33l-3.151 9.517h-10.16l16.526-46.3h10.932l16.398 46.3h-10.482l-2.958-9.517Zm-2.7-7.974-5.788-18.198-5.98 18.198h11.767Z"/>
  <path fill-rule="nonzero" d="M546.948 75.706h-9.646l-18.906-32.86v32.86h-9.003v-46.3h10.096l18.456 32.346V29.407h9.003v46.3Z"/>
  <path fill-rule="nonzero" d="m590.107 29.407-15.433 28.872v17.427h-9.71V58.28l-16.012-28.872h11.382l9.645 20.191 9.196-20.191h10.932Z"/>
  <path fill-rule="nonzero" d="M203.383 90.021c.074-1.325.295-2.32.7-2.946.773-1.104 2.246-1.656 4.381-1.656.221 0 .405.036.626.036.221 0 .479.037.737.037v2.946c-.332 0-.553-.037-.737-.037h-.405c-.994 0-1.583.258-1.767.773-.184.516-.295 1.804-.295 3.866h3.204v2.578h-3.24v16.606h-3.204V95.618h-2.651V93.04h2.651v-3.019Z"/>
  <path fill-rule="nonzero" d="M211.072 92.967h3.056v3.314c.258-.626.884-1.436 1.878-2.357.958-.92 2.099-1.4 3.388-1.4.073 0 .147 0 .294.038.147 0 .405.037.737.073v3.425a2.888 2.888 0 0 0-.516-.074c-.184-.037-.331-.037-.552-.037-1.62 0-2.872.516-3.756 1.583a5.554 5.554 0 0 0-1.289 3.609v11.083h-3.24V92.967Z"/>
  <path fill-rule="nonzero" d="M229.409 92.525c1.362 0 2.688.331 3.976.957 1.29.663 2.246 1.473 2.946 2.504.626.957 1.068 2.099 1.289 3.387.184.884.294 2.32.294 4.272h-14.139c.074 1.951.553 3.498 1.4 4.676.846 1.178 2.209 1.767 4.013 1.767 1.694 0 3.02-.552 4.05-1.657.552-.663.957-1.399 1.215-2.246h3.167c-.074.7-.332 1.51-.81 2.357a8.337 8.337 0 0 1-1.62 2.135c-.958.958-2.173 1.62-3.646 1.952-.773.184-1.657.294-2.614.294-2.43 0-4.455-.883-6.112-2.614-1.657-1.767-2.504-4.197-2.504-7.327 0-3.093.847-5.634 2.54-7.548 1.658-1.915 3.867-2.91 6.555-2.91Zm5.155 8.542c-.11-1.399-.442-2.54-.92-3.387-.885-1.547-2.357-2.32-4.42-2.32-1.509 0-2.724.552-3.755 1.62-.994 1.068-1.546 2.43-1.583 4.087h10.678Z"/>
  <path fill-rule="nonzero" d="M248.046 92.525c1.362 0 2.688.331 3.977.957 1.288.663 2.246 1.473 2.945 2.504.626.957 1.068 2.099 1.289 3.387.184.884.294 2.32.294 4.272h-14.139c.074 1.951.553 3.498 1.4 4.676.846 1.178 2.209 1.767 4.013 1.767 1.694 0 3.02-.552 4.05-1.657.553-.663.958-1.399 1.215-2.246h3.167c-.074.7-.332 1.51-.81 2.357a8.337 8.337 0 0 1-1.62 2.135c-.958.958-2.173 1.62-3.645 1.952-.774.184-1.657.294-2.615.294-2.43 0-4.455-.883-6.112-2.614-1.657-1.767-2.504-4.197-2.504-7.327 0-3.093.847-5.634 2.54-7.548 1.658-1.915 3.867-2.91 6.555-2.91Zm5.155 8.542c-.11-1.399-.442-2.54-.92-3.387-.884-1.547-2.357-2.32-4.42-2.32-1.509 0-2.724.552-3.755 1.62-.994 1.068-1.546 2.43-1.583 4.087H253.2Z"/>
  <path fill-rule="nonzero" d="M258.767 85.824h3.24v26.4h-3.24z"/>
  <path fill-rule="nonzero" d="M272.654 110.125c2.136 0 3.609-.81 4.419-2.43.773-1.62 1.178-3.424 1.178-5.413 0-1.804-.258-3.277-.847-4.381-.92-1.768-2.504-2.651-4.713-2.651-1.988 0-3.424.736-4.308 2.246-.92 1.51-1.362 3.35-1.362 5.486 0 2.025.441 3.756 1.362 5.118.884 1.362 2.32 2.025 4.271 2.025Zm.11-17.71c2.504 0 4.603.81 6.297 2.466 1.73 1.657 2.577 4.087 2.577 7.328 0 3.093-.736 5.67-2.246 7.695-1.51 2.025-3.866 3.02-7.032 3.02-2.651 0-4.75-.884-6.334-2.689-1.546-1.804-2.32-4.197-2.32-7.216 0-3.24.81-5.818 2.468-7.733 1.62-1.914 3.83-2.872 6.59-2.872Z"/>
  <path fill-rule="nonzero" d="M290.444 92.635c1.51 0 2.836.369 3.94 1.105.626.405 1.252 1.03 1.878 1.841v-2.43h2.982v17.526c0 2.43-.33 4.345-1.067 5.781-1.326 2.614-3.866 3.903-7.622 3.903-2.062 0-3.793-.442-5.229-1.4-1.399-.92-2.209-2.356-2.356-4.344h3.277c.147.847.479 1.51.957 1.988.737.737 1.878 1.068 3.425 1.068 2.503 0 4.123-.847 4.897-2.614.441-1.031.662-2.872.626-5.523-.663.994-1.436 1.73-2.357 2.21-.884.478-2.099.699-3.608.699-2.062 0-3.903-.737-5.45-2.21-1.583-1.472-2.356-3.94-2.356-7.327 0-3.24.773-5.744 2.356-7.548 1.584-1.841 3.461-2.725 5.707-2.725Zm5.818 9.868c0-2.356-.479-4.124-1.473-5.302-.994-1.141-2.246-1.73-3.755-1.73-2.283 0-3.83 1.067-4.677 3.203-.441 1.141-.662 2.65-.662 4.492 0 2.172.441 3.83 1.325 4.934.884 1.141 2.062 1.73 3.535 1.73 2.356 0 3.976-1.067 4.934-3.166.515-1.178.773-2.578.773-4.16Z"/>
  <path fill-rule="nonzero" d="M309.925 110.125c2.136 0 3.609-.81 4.419-2.43.773-1.62 1.178-3.424 1.178-5.413 0-1.804-.258-3.277-.847-4.381-.92-1.768-2.504-2.651-4.713-2.651-1.988 0-3.424.736-4.308 2.246-.92 1.51-1.362 3.35-1.362 5.486 0 2.025.442 3.756 1.362 5.118.884 1.362 2.32 2.025 4.271 2.025Zm.11-17.71c2.505 0 4.603.81 6.297 2.466 1.73 1.657 2.578 4.087 2.578 7.328 0 3.093-.737 5.67-2.246 7.695-1.51 2.025-3.867 3.02-7.033 3.02-2.651 0-4.75-.884-6.333-2.689-1.547-1.804-2.32-4.197-2.32-7.216 0-3.24.81-5.818 2.467-7.733 1.62-1.914 3.83-2.872 6.59-2.872Z"/>
  <path fill-rule="nonzero" d="M321.677 108.32h3.756v3.904h-3.756z"/>
  <path fill-rule="nonzero" d="M329.293 92.967h3.203v2.724c.773-.92 1.473-1.62 2.099-2.061 1.068-.737 2.283-1.105 3.645-1.105 1.51 0 2.762.405 3.682 1.141.553.442 1.031 1.068 1.436 1.915.737-1.031 1.583-1.804 2.54-2.283.995-.515 2.063-.773 3.278-.773 2.577 0 4.345.957 5.302 2.835.479.994.736 2.357.736 4.05v12.814h-3.35V98.858c0-1.289-.332-2.172-.958-2.651-.662-.479-1.436-.736-2.356-.736-1.289 0-2.357.441-3.277 1.288-.92.847-1.4 2.283-1.4 4.271v11.194h-3.276V99.668c0-1.326-.148-2.283-.479-2.872-.479-.884-1.4-1.362-2.725-1.362-1.252 0-2.356.478-3.35 1.436-.994.957-1.51 2.65-1.51 5.155v10.199h-3.24V92.967Z"/>
  <path fill-rule="nonzero" d="M366.15 92.525c1.362 0 2.688.331 3.977.957 1.288.663 2.246 1.473 2.945 2.504.626.957 1.068 2.099 1.289 3.387.184.884.294 2.32.294 4.272h-14.139c.074 1.951.553 3.498 1.4 4.676.846 1.178 2.209 1.767 4.013 1.767 1.694 0 3.02-.552 4.05-1.657.553-.663.958-1.399 1.215-2.246h3.167c-.074.7-.332 1.51-.81 2.357a8.337 8.337 0 0 1-1.62 2.135c-.958.958-2.173 1.62-3.645 1.952-.774.184-1.657.294-2.615.294-2.43 0-4.455-.883-6.112-2.614-1.657-1.767-2.504-4.197-2.504-7.327 0-3.093.847-5.634 2.54-7.548 1.658-1.915 3.867-2.91 6.555-2.91Zm5.155 8.542c-.11-1.399-.442-2.54-.92-3.387-.884-1.547-2.357-2.32-4.42-2.32-1.509 0-2.724.552-3.755 1.62-.994 1.068-1.546 2.43-1.583 4.087h10.678Z"/>
  <path fill-rule="nonzero" d="M75.002.002c0 41.144-33.856 75-75 75V56.253c30.859 0 56.25-25.392 56.25-56.25"/>
  <path fill-rule="nonzero" d="M75.005 150.002c0-41.144 33.856-75 75-75v18.749c-30.859 0-56.25 25.393-56.25 56.251"/>
  <path d="M75 75.021H18.75c0 30.85 25.39 56.25 56.25 56.25v-56.25Z"/>
  <path d="M74.999 74.983h56.25c0-30.85-25.39-56.25-56.25-56.25v56.25Z"/>
</svg>
